<svg width="86" height="86" viewBox="0 0 86 86" fill="none" xmlns="http://www.w3.org/2000/svg">
<g clip-path="url(#clip0)">
<path d="M82.0791 53.6949L84.5396 51.2351C86.088 49.686 86.088 47.1658 84.5396 45.6166C83.789 44.8667 82.7916 44.4533 81.73 44.4533C80.9335 44.4533 80.1724 44.6863 79.5254 45.12L79.0071 43.3799L81.6703 40.716C83.2194 39.1669 83.2194 36.6467 81.6703 35.0982C80.2446 33.6718 77.9967 33.5622 76.4397 34.7623L73.2837 24.1671C74.5441 22.9533 75.7514 21.7723 76.8891 20.6345C80.1678 17.3552 82.8336 13.8849 84.3959 10.8615C87.0355 5.75157 85.9306 3.0201 84.5389 1.62845C83.1479 0.236804 80.4165 -0.86746 75.3059 1.77215C72.2831 3.33373 68.8122 5.99958 65.5335 9.27892C64.3958 10.4166 63.2141 11.6233 62.0009 12.8837L51.4051 9.72771C52.6051 8.17137 52.4956 5.92347 51.0698 4.49705C49.5207 2.94859 47.0005 2.94793 45.452 4.49705L42.7881 7.16093L41.0474 6.64259C41.4811 5.99499 41.7141 5.23388 41.7141 4.43734C41.7141 3.37638 41.3007 2.37841 40.5507 1.62845C39.0023 0.0793336 36.4814 0.0793336 34.933 1.62845L32.4731 4.08828L19.9352 0.353596C19.4883 0.221058 19.0054 0.343098 18.6767 0.672474L15.4492 3.89997C14.9073 4.44128 14.9788 5.36708 15.5968 5.81915L47.2314 28.9746C40.0987 37.0168 33.2277 45.0688 28.3769 50.8217L19.0717 47.2425C18.6039 47.0628 18.0744 47.1749 17.7201 47.5293L13.8948 51.3545C13.4001 51.8499 13.4001 52.6523 13.8948 53.147L33.0203 72.2725C33.5085 72.7613 34.3247 72.7613 34.8135 72.2725L38.6381 68.448C38.9924 68.0937 39.1053 67.5635 38.9248 67.0957L35.3463 57.7911C41.0993 52.9404 49.1506 46.0694 57.1934 38.9359L59.7064 42.3701C60.1526 42.9797 61.0574 43.0584 61.6046 42.5387C62.0606 42.1057 62.1236 41.3794 61.7529 40.8728L59.0962 37.2431C63.302 33.4894 67.4553 29.7022 71.2234 26.1336L83.1683 66.2329L81.5207 67.8798L65.1037 45.4506C64.6904 44.8857 63.8971 44.763 63.3322 45.1764C62.7666 45.5904 62.6439 46.3837 63.0579 46.9486L80.3489 70.5712C80.801 71.1893 81.7268 71.2608 82.2681 70.7188L85.4956 67.4913C85.8249 67.1626 85.947 66.679 85.8144 66.2329L82.0791 53.6949ZM47.2452 6.29025C47.799 5.73648 48.7235 5.73648 49.2772 6.29025C49.8376 6.85058 49.8376 7.76195 49.2772 8.32228L48.6828 8.91673L45.5511 7.98372L47.2452 6.29025ZM36.7262 3.42165C37.2858 2.86132 38.1979 2.86132 38.7582 3.42165C39.3185 3.98199 39.3185 4.89335 38.7582 5.45368L38.3671 5.84408L35.2361 4.91172L36.7262 3.42165ZM18.2876 4.64665L19.9352 2.99976L60.0345 14.9439C56.4658 18.7127 52.6786 22.866 48.9242 27.0718L18.2876 4.64665ZM18.9306 49.9051L26.65 52.8741C24.7138 55.1797 23.2289 56.9637 22.353 58.0194L16.5843 52.2508L18.9306 49.9051ZM24.1541 59.8205C28.5738 54.4882 51.9352 26.4629 67.3267 11.0715C70.3803 8.01718 73.7135 5.44909 76.4698 4.02529C78.5393 2.9558 81.3081 1.98342 82.7464 3.42165C84.1846 4.85989 83.2116 7.62875 82.1427 9.69818C80.7189 12.4546 78.1502 15.7871 75.0959 18.8413C59.7058 34.2315 31.6799 57.5936 26.3475 62.014L24.1541 59.8205ZM36.2629 67.2374L33.9173 69.5831L28.1486 63.8144C29.2036 62.9391 30.9883 61.4543 33.2939 59.518L36.2629 67.2374ZM80.7143 47.4098C81.2747 46.8495 82.186 46.8495 82.7464 47.4098C83.3067 47.9702 83.3067 48.8815 82.7464 49.4419L81.2563 50.9319L80.3233 47.8009L80.7143 47.4098ZM77.8457 36.8908C78.4054 36.3305 79.3174 36.3311 79.8778 36.8908C80.4316 37.4446 80.4316 38.369 79.8778 38.9228L78.1837 40.6169L77.2506 37.4852L77.8457 36.8908Z" fill="#3B3F9E"/>
<path d="M76.1037 73.1845L65.2848 84.0034C64.8236 84.4654 64.7927 85.2278 65.2172 85.7238C65.6916 86.2776 66.5623 86.3124 67.078 85.7966L77.8969 74.9777C78.3923 74.4824 78.3923 73.6799 77.8969 73.1845C77.4022 72.6898 76.5991 72.6898 76.1037 73.1845Z" fill="#3B3F9E"/>
<path d="M72.4872 69.568C72.9825 69.0733 72.9825 68.2702 72.4872 67.7754C71.9924 67.2801 71.1893 67.2801 70.6946 67.7754L63.9325 74.5368C63.4713 74.9988 63.4404 75.7612 63.865 76.2572C64.3393 76.811 65.21 76.8458 65.7257 76.33L72.4872 69.568Z" fill="#3B3F9E"/>
<path d="M68.4303 62.8066C68.9257 62.3112 68.9257 61.5081 68.4303 61.0134C67.9349 60.518 67.1325 60.518 66.6371 61.0134L61.9038 65.7467C61.4425 66.2079 61.4117 66.971 61.8369 67.467C62.3106 68.0208 63.1813 68.0556 63.697 67.5399L68.4303 62.8066Z" fill="#3B3F9E"/>
<path d="M12.9835 8.94692C12.4881 8.45219 11.685 8.45219 11.1903 8.94692L0.37135 19.7665C-0.124027 20.2612 -0.124027 21.0643 0.37135 21.559C0.85951 22.0472 1.67573 22.0472 2.16455 21.559L12.9835 10.7401C13.4782 10.2447 13.4782 9.44229 12.9835 8.94692Z" fill="#3B3F9E"/>
<path d="M18.3926 14.3567C17.8973 13.8613 17.0948 13.8613 16.6001 14.3567L9.83804 21.1188C9.37612 21.58 9.34594 22.3424 9.77046 22.8385C10.2448 23.3922 11.1149 23.427 11.6306 22.9113L18.3926 16.1499C18.888 15.6545 18.888 14.8514 18.3926 14.3567Z" fill="#3B3F9E"/>
<path d="M18.6282 24.94C19.117 25.4282 19.9325 25.4282 20.4214 24.94L25.1547 20.2067C25.6494 19.7114 25.6494 18.9089 25.1547 18.4135C24.6593 17.9188 23.8568 17.9188 23.3615 18.4135L18.6282 23.1468C18.1334 23.6422 18.1334 24.4447 18.6282 24.94Z" fill="#3B3F9E"/>
</g>
<defs>
<clipPath id="clip0">
<rect width="86" height="86" fill="white"/>
</clipPath>
</defs>
</svg>
