<svg width="166" height="187" viewBox="0 0 166 187" fill="none" xmlns="http://www.w3.org/2000/svg">
<g filter="url(#filter0_d)">
<path d="M129.232 25.3561H114.486V18.7591C114.486 16.6247 112.157 15.6546 110.023 15.6546H98.5752C95.8589 7.89329 89.0676 4.01262 81.3063 4.01262C73.6304 3.72405 66.6486 8.43069 64.0374 15.6546H52.7835C50.6491 15.6546 48.5148 16.6247 48.5148 18.7591V25.3561H33.768C25.0291 25.4493 17.8799 32.343 17.4691 41.0726V152.253C17.4691 160.791 25.2304 167 33.768 167H129.232C137.77 167 145.531 160.791 145.531 152.253V41.0729C145.12 32.343 137.971 25.4493 129.232 25.3561ZM56.2757 23.4159H66.9476C68.8105 23.1886 70.3068 21.7714 70.6344 19.9234C71.7835 14.9193 76.1737 11.3272 81.3063 11.192C86.3914 11.3461 90.7155 14.9493 91.784 19.9234C92.132 21.8353 93.7271 23.2707 95.6646 23.4159H106.725V38.9386H56.2757V23.4159ZM137.77 152.254C137.77 156.522 133.501 159.239 129.232 159.239H33.768C29.4992 159.239 25.2304 156.522 25.2304 152.254V41.0729C25.6263 36.6296 29.3075 33.1991 33.768 33.1178H48.5144V43.0135C48.7194 45.1876 50.6023 46.8139 52.7831 46.7003H110.023C112.244 46.8217 114.186 45.2177 114.485 43.0135V33.1174H129.232C133.692 33.1991 137.373 36.6293 137.769 41.0726V152.254H137.77Z" fill="#3B3F9E"/>
<path d="M66.5595 90.7454C65.104 89.2111 62.6878 89.1246 61.1264 90.5515L48.7083 102.387L43.4694 96.9543C42.0139 95.42 39.5977 95.3339 38.0363 96.7604C36.5333 98.3351 36.5333 100.813 38.0363 102.387L45.9915 110.537C46.6801 111.308 47.6747 111.734 48.7079 111.701C49.7314 111.687 50.7078 111.268 51.4242 110.537L66.5588 96.1784C68.0592 94.8021 68.1595 92.4697 66.7827 90.9697C66.7122 90.8913 66.6375 90.8167 66.5595 90.7454Z" fill="#3B3F9E"/>
<path d="M122.247 99.0886H77.6195C75.4762 99.0886 73.7389 100.826 73.7389 102.969C73.7389 105.113 75.4762 106.85 77.6195 106.85H122.247C124.39 106.85 126.128 105.113 126.128 102.969C126.128 100.826 124.39 99.0886 122.247 99.0886Z" fill="#3B3F9E"/>
<path d="M66.5595 59.7001C65.104 58.1659 62.6878 58.0793 61.1264 59.5062L48.7083 71.3421L43.4694 65.909C42.0139 64.3748 39.5977 64.2882 38.0363 65.7151C36.5333 67.2898 36.5333 69.7674 38.0363 71.3421L45.9915 79.4915C46.6801 80.2625 47.6747 80.6888 48.7079 80.6558C49.7314 80.6413 50.7078 80.2227 51.4242 79.4915L66.5588 65.1331C68.0592 63.7568 68.1595 61.4244 66.7827 59.9244C66.7122 59.846 66.6375 59.7714 66.5595 59.7001Z" fill="#3B3F9E"/>
<path d="M122.247 68.0434H77.6195C75.4762 68.0434 73.7389 69.7808 73.7389 71.9241C73.7389 74.0674 75.4762 75.8047 77.6195 75.8047H122.247C124.39 75.8047 126.128 74.0674 126.128 71.9241C126.128 69.7808 124.39 68.0434 122.247 68.0434Z" fill="#3B3F9E"/>
<path d="M66.5595 121.79C65.104 120.256 62.6878 120.17 61.1264 121.596L48.7083 133.432L43.4694 127.999C42.0139 126.465 39.5977 126.379 38.0363 127.805C36.5333 129.38 36.5333 131.857 38.0363 133.432L45.9915 141.582C46.6801 142.353 47.6747 142.779 48.7079 142.746C49.7314 142.731 50.7078 142.313 51.4242 141.582L66.5588 127.223C68.0592 125.847 68.1595 123.515 66.7827 122.015C66.7122 121.937 66.6375 121.862 66.5595 121.79Z" fill="#3B3F9E"/>
<path d="M122.247 130.134H77.6195C75.4762 130.134 73.7389 131.871 73.7389 134.015C73.7389 136.158 75.4762 137.895 77.6195 137.895H122.247C124.39 137.895 126.128 136.158 126.128 134.015C126.128 131.871 124.39 130.134 122.247 130.134Z" fill="#3B3F9E"/>
</g>
<defs>
<filter id="filter0_d" x="-4" y="0" width="187" height="187" filterUnits="userSpaceOnUse" color-interpolation-filters="sRGB">
<feFlood flood-opacity="0" result="BackgroundImageFix"/>
<feColorMatrix in="SourceAlpha" type="matrix" values="0 0 0 0 0 0 0 0 0 0 0 0 0 0 0 0 0 0 127 0"/>
<feOffset dx="8" dy="8"/>
<feGaussianBlur stdDeviation="6"/>
<feColorMatrix type="matrix" values="0 0 0 0 0 0 0 0 0 0 0 0 0 0 0 0 0 0 0.3 0"/>
<feBlend mode="normal" in2="BackgroundImageFix" result="effect1_dropShadow"/>
<feBlend mode="normal" in="SourceGraphic" in2="effect1_dropShadow" result="shape"/>
</filter>
</defs>
</svg>
