<svg width="160" height="160" viewBox="0 0 160 160" fill="none" xmlns="http://www.w3.org/2000/svg">
<g filter="url(#filter0_d)">
<path d="M60.0469 79.9688C60.0469 86.5596 65.4092 91.9219 72 91.9219C78.5908 91.9219 83.9531 86.5596 83.9531 79.9688C83.9531 73.3779 78.5908 68.0156 72 68.0156C65.4092 68.0156 60.0469 73.3779 60.0469 79.9688Z" fill="#3B3F9E"/>
<path d="M72 99.8906C58.8173 99.8906 48.0938 110.614 48.0938 123.797V140H95.9062V123.797C95.9062 110.614 85.1827 99.8906 72 99.8906Z" fill="#3B3F9E"/>
<path d="M40.125 87.9375C40.125 81.3467 34.7627 75.9844 28.1719 75.9844C21.5811 75.9844 16.2188 81.3467 16.2188 87.9375C16.2188 94.5283 21.5811 99.8906 28.1719 99.8906C34.7627 99.8906 40.125 94.5283 40.125 87.9375Z" fill="#3B3F9E"/>
<path d="M127.781 87.9375C127.781 81.3467 122.419 75.9844 115.828 75.9844C109.237 75.9844 103.875 81.3467 103.875 87.9375C103.875 94.5283 109.237 99.8906 115.828 99.8906C122.419 99.8906 127.781 94.5283 127.781 87.9375Z" fill="#3B3F9E"/>
<path d="M24.1875 4L18.1259 18.2908L4 20.283L14.1882 29.9607L11.8453 44.1094L24.1875 37.6586L36.5297 44.1094L34.1868 29.9607L44.1094 20.283L30.3975 18.2908L24.1875 4Z" fill="#3B3F9E"/>
<path d="M78.21 18.2908L72 4L65.9384 18.2908L52.0781 20.283L62.0007 29.9607L59.6578 44.1094L72 37.6586L84.3422 44.1094L81.9993 29.9607L91.9219 20.283L78.21 18.2908Z" fill="#3B3F9E"/>
<path d="M119.812 4L113.751 18.2908L99.8906 20.283L109.813 29.9607L107.47 44.1094L119.812 37.6586L132.155 44.1094L129.812 29.9607L140 20.283L126.023 18.2908L119.812 4Z" fill="#3B3F9E"/>
<path d="M115.828 107.859C110.532 107.859 105.686 109.637 101.724 112.55C103.057 116.061 103.875 119.825 103.875 123.797V140H140V131.766C140 118.562 129.032 107.859 115.828 107.859Z" fill="#3B3F9E"/>
<path d="M4 131.766V140H40.125V123.797C40.125 119.825 40.9426 116.061 42.2759 112.55C38.3144 109.637 33.4678 107.859 28.1719 107.859C14.9684 107.859 4 118.562 4 131.766Z" fill="#3B3F9E"/>
</g>
<defs>
<filter id="filter0_d" x="0" y="0" width="160" height="160" filterUnits="userSpaceOnUse" color-interpolation-filters="sRGB">
<feFlood flood-opacity="0" result="BackgroundImageFix"/>
<feColorMatrix in="SourceAlpha" type="matrix" values="0 0 0 0 0 0 0 0 0 0 0 0 0 0 0 0 0 0 127 0"/>
<feOffset dx="8" dy="8"/>
<feGaussianBlur stdDeviation="6"/>
<feColorMatrix type="matrix" values="0 0 0 0 0 0 0 0 0 0 0 0 0 0 0 0 0 0 0.3 0"/>
<feBlend mode="normal" in2="BackgroundImageFix" result="effect1_dropShadow"/>
<feBlend mode="normal" in="SourceGraphic" in2="effect1_dropShadow" result="shape"/>
</filter>
</defs>
</svg>
