<svg width="161" height="161" viewBox="0 0 161 161" fill="none" xmlns="http://www.w3.org/2000/svg">
<g filter="url(#filter0_d)">
<path d="M72.4998 27.8931C79.0977 27.8931 84.4463 22.5444 84.4463 15.9465C84.4463 9.34864 79.0977 4 72.4998 4C65.9019 4 60.5533 9.34864 60.5533 15.9465C60.5533 22.5444 65.9019 27.8931 72.4998 27.8931Z" fill="#3B3F9E"/>
<path d="M77.1291 30.7642C77.0727 30.7626 77.0163 30.7611 76.9599 30.7602H68.04C58.8926 30.9321 51.6168 38.4871 51.7888 47.6345C51.7897 47.6909 51.7912 47.7473 51.7927 47.8038V50.3523C51.7927 51.6267 52.2705 53.0602 53.7041 53.0602H91.2955C92.7291 53.0602 93.2068 51.6267 93.2068 50.3523V47.8038C93.4724 38.6588 86.2741 31.0297 77.1291 30.7642Z" fill="#3B3F9E"/>
<path d="M20.7319 83.3244C22.0515 83.3244 23.1213 82.2546 23.1213 80.935C23.0881 65.9424 29.89 51.7523 41.5984 42.3878C42.5987 41.6695 42.8277 40.2762 42.1094 39.2759C42.0505 39.1938 41.9862 39.1161 41.917 39.0429C41.0777 38.0383 39.5859 37.8963 38.5721 38.7243C25.7829 49.0034 18.3435 64.5268 18.3429 80.935C18.3429 82.2549 19.4124 83.3244 20.7319 83.3244Z" fill="#3B3F9E"/>
<path d="M88.2693 127.765C78.0767 131.109 67.0826 131.109 56.8901 127.765C55.6346 127.359 54.2876 128.047 53.8809 129.302C53.8748 129.321 53.869 129.339 53.8635 129.358C53.5382 130.626 54.227 131.934 55.4562 132.384C60.9606 134.174 66.7119 135.087 72.4998 135.092C78.4054 135.098 84.2716 134.129 89.862 132.225C91.0342 131.62 91.494 130.178 90.8885 129.006C90.3946 128.05 89.322 127.542 88.2693 127.765Z" fill="#3B3F9E"/>
<path d="M100.981 40.6149C100.991 40.6219 101.002 40.6289 101.012 40.636C114.073 49.9059 121.847 64.9187 121.879 80.9354C121.879 82.2549 122.948 83.3247 124.268 83.3247C125.588 83.3247 126.657 82.2549 126.657 80.9354C126.613 63.3363 118.07 46.8428 103.72 36.6539C102.606 35.981 101.164 36.2557 100.375 37.2911C99.6243 38.3765 99.896 39.8646 100.981 40.6149Z" fill="#3B3F9E"/>
<path d="M24.714 115.5C31.3119 115.5 36.6605 110.152 36.6605 103.554C36.6605 96.9558 31.3119 91.6072 24.714 91.6072C18.1161 91.6072 12.7675 96.9558 12.7675 103.554C12.7675 110.152 18.1161 115.5 24.714 115.5Z" fill="#3B3F9E"/>
<path d="M29.3433 118.371C29.2869 118.37 29.2305 118.368 29.1741 118.367H20.2542C11.1068 118.539 3.83074 126.094 4.003 135.242C4.00391 135.298 4.00544 135.354 4.00696 135.411V137.959C4.00696 139.234 4.48471 140.667 5.91827 140.667H43.5097C44.9433 140.667 45.421 139.234 45.421 137.959V135.411C45.6869 126.266 38.4886 118.637 29.3433 118.371Z" fill="#3B3F9E"/>
<path d="M120.286 115.5C126.883 115.5 132.232 110.152 132.232 103.554C132.232 96.9558 126.883 91.6072 120.286 91.6072C113.688 91.6072 108.339 96.9558 108.339 103.554C108.339 110.152 113.688 115.5 120.286 115.5Z" fill="#3B3F9E"/>
<path d="M124.915 118.371C124.858 118.37 124.802 118.368 124.745 118.367H115.825C106.678 118.539 99.4024 126.094 99.5743 135.242C99.5752 135.298 99.5767 135.354 99.5783 135.411V137.959C99.5783 139.234 100.056 140.667 101.49 140.667H139.081C140.515 140.667 140.993 139.234 140.993 137.959V135.411C141.258 126.266 134.06 118.637 124.915 118.371Z" fill="#3B3F9E"/>
</g>
<defs>
<filter id="filter0_d" x="0" y="0" width="161" height="161" filterUnits="userSpaceOnUse" color-interpolation-filters="sRGB">
<feFlood flood-opacity="0" result="BackgroundImageFix"/>
<feColorMatrix in="SourceAlpha" type="matrix" values="0 0 0 0 0 0 0 0 0 0 0 0 0 0 0 0 0 0 127 0"/>
<feOffset dx="8" dy="8"/>
<feGaussianBlur stdDeviation="6"/>
<feColorMatrix type="matrix" values="0 0 0 0 0 0 0 0 0 0 0 0 0 0 0 0 0 0 0.3 0"/>
<feBlend mode="normal" in2="BackgroundImageFix" result="effect1_dropShadow"/>
<feBlend mode="normal" in="SourceGraphic" in2="effect1_dropShadow" result="shape"/>
</filter>
</defs>
</svg>
