<svg width="183" height="183" viewBox="0 0 183 183" fill="none" xmlns="http://www.w3.org/2000/svg">
<g clip-path="url(#clip0)" filter="url(#filter0_d)">
<path d="M77.3681 111.842C78.5823 110.628 78.5823 108.663 77.3681 107.449C76.1526 106.238 74.1836 106.238 72.967 107.449C71.7539 108.663 71.7539 110.628 72.967 111.842C74.1836 113.053 76.1526 113.053 77.3681 111.842Z" fill="#3B3F9E"/>
<path d="M62.6368 38.1505C62.6368 56.981 77.9867 72.3021 96.8541 72.3021C115.722 72.3021 131.071 56.981 131.071 38.1505C131.071 19.3199 115.722 4 96.8541 4C77.9867 4 62.6368 19.3199 62.6368 38.1505ZM124.851 38.1505C124.851 53.5577 112.292 66.0924 96.8541 66.0924C81.4167 66.0924 68.8575 53.5577 68.8575 38.1505C68.8575 22.7444 81.4167 10.2097 96.8541 10.2097C112.292 10.2097 124.851 22.7444 124.851 38.1505Z" fill="#3B3F9E"/>
<path d="M39.9858 162.082C41.1915 163.295 43.1544 163.308 44.376 162.107L59.4572 147.279C62.0194 144.721 62.7985 140.935 61.6718 137.644L64.9158 134.522C66.6624 132.838 68.962 131.91 71.3929 131.91H112.746C120.083 131.91 127.017 129.098 132.273 123.992C132.49 123.783 130.631 125.967 160.485 90.3563C164.913 85.1279 164.251 77.2769 159.007 72.8528C153.797 68.47 145.991 69.0996 141.551 74.2382L123.195 93.0675C120.877 90.2204 117.343 88.4457 113.524 88.4457H78.8363C73.9004 86.3847 68.663 85.3414 63.2592 85.3414C48.28 85.3414 35.2005 92.2462 28.1813 105.192C25.2242 104.633 22.1053 105.526 19.8616 107.765L5.06352 122.578C3.85537 123.787 3.85294 125.744 5.05866 126.957L39.9858 162.082ZM63.2579 91.5499C68.0225 91.5499 72.629 92.5071 76.9524 94.3946C77.3462 94.5669 77.7704 94.6554 78.1994 94.6554H113.524C116.897 94.6554 119.746 97.4006 119.746 100.864C119.746 104.288 116.955 107.074 113.524 107.074H88.1442C86.4268 107.074 85.0339 108.464 85.0339 110.178C85.0339 111.893 86.4268 113.282 88.1442 113.282H113.524C120.385 113.282 125.967 107.712 125.967 100.864C125.967 100.318 125.928 99.777 125.857 99.2408C143.614 81.0241 146.117 78.4645 146.224 78.3371C148.441 75.7254 152.377 75.3942 154.995 77.5972C157.616 79.8086 157.947 83.7341 155.724 86.3604L127.824 119.65C123.75 123.553 118.4 125.702 112.746 125.702H71.3929C67.3406 125.702 63.5047 127.248 60.5949 130.054L57.9513 132.6L33.5816 108.279C39.2772 97.6153 49.9646 91.5499 63.2579 91.5499ZM24.2639 112.153C25.2898 111.129 26.865 110.945 28.1157 111.716C28.6541 112.044 27.1081 110.639 55.0585 138.496C56.3019 139.737 56.2351 141.714 55.0755 142.871L42.2185 155.513L11.6537 124.775L24.2639 112.153Z" fill="#3B3F9E"/>
<path d="M93.1215 19.5237V23.1617C89.5007 24.4427 86.8996 27.8939 86.8996 31.9419C86.8996 37.0769 91.0856 41.2559 96.2318 41.2559C97.9468 41.2559 99.3422 42.6485 99.3422 44.3602C99.3422 46.0718 97.9468 47.4644 96.2318 47.4644C94.9033 47.4644 93.4679 46.631 92.1929 45.1159C91.0868 43.8034 89.1251 43.6347 87.81 44.7374C86.4949 45.8413 86.3247 47.7992 87.4308 49.1118C89.0935 51.0854 91.0492 52.4611 93.1215 53.155V56.7784C93.1215 58.4937 94.5144 59.8827 96.2318 59.8827C97.9492 59.8827 99.3422 58.4937 99.3422 56.7784V53.1404C102.963 51.8582 105.564 48.407 105.564 44.3602C105.564 39.224 101.378 35.0462 96.2318 35.0462C94.5168 35.0462 93.1215 33.6536 93.1215 31.9419C93.1215 30.2303 94.5168 28.8365 96.2318 28.8365C97.3342 28.8365 98.4974 29.3981 99.5962 30.4595C100.831 31.652 102.8 31.6192 103.995 30.388C105.19 29.1555 105.157 27.1903 103.923 25.9979C102.344 24.473 100.764 23.6105 99.3422 23.1399V19.5237C99.3422 17.8084 97.9492 16.4182 96.2318 16.4182C94.5144 16.4182 93.1215 17.8084 93.1215 19.5237Z" fill="#3B3F9E"/>
</g>
<defs>
<filter id="filter0_d" x="0" y="0" width="183" height="183" filterUnits="userSpaceOnUse" color-interpolation-filters="sRGB">
<feFlood flood-opacity="0" result="BackgroundImageFix"/>
<feColorMatrix in="SourceAlpha" type="matrix" values="0 0 0 0 0 0 0 0 0 0 0 0 0 0 0 0 0 0 127 0"/>
<feOffset dx="8" dy="8"/>
<feGaussianBlur stdDeviation="6"/>
<feColorMatrix type="matrix" values="0 0 0 0 0 0 0 0 0 0 0 0 0 0 0 0 0 0 0.3 0"/>
<feBlend mode="normal" in2="BackgroundImageFix" result="effect1_dropShadow"/>
<feBlend mode="normal" in="SourceGraphic" in2="effect1_dropShadow" result="shape"/>
</filter>
<clipPath id="clip0">
<rect width="159" height="159" fill="white" transform="translate(4 4)"/>
</clipPath>
</defs>
</svg>
