<svg width="12" height="16" viewBox="0 0 12 16" fill="none" xmlns="http://www.w3.org/2000/svg">
<path d="M5.75 0C2.80925 0 0.416656 2.39259 0.416656 5.33334C0.416656 6.21616 0.637375 7.09147 1.05697 7.86784L5.45834 15.8281C5.51694 15.9342 5.62859 16 5.75 16C5.87141 16 5.98306 15.9342 6.04166 15.8281L10.4447 7.86522C10.8626 7.09147 11.0833 6.21613 11.0833 5.33331C11.0833 2.39259 8.69075 0 5.75 0ZM5.75 8C4.27962 8 3.08334 6.80372 3.08334 5.33334C3.08334 3.86297 4.27962 2.66669 5.75 2.66669C7.22037 2.66669 8.41666 3.86297 8.41666 5.33334C8.41666 6.80372 7.22037 8 5.75 8Z" fill="white"/>
</svg>
