<svg width="20" height="20" viewBox="0 0 20 20" fill="none" xmlns="http://www.w3.org/2000/svg">
<g clip-path="url(#clip0)">
<path d="M19.0826 4.0249L13.3203 9.7501L19.0826 15.4753C19.1868 15.2576 19.25 15.0169 19.25 14.7599V4.74033C19.25 4.48328 19.1868 4.24262 19.0826 4.0249Z" fill="white"/>
<path d="M17.5801 3.07031H1.91991C1.66286 3.07031 1.4222 3.13351 1.20448 3.23768L8.56932 10.5654C9.22052 11.2166 10.2795 11.2166 10.9307 10.5654L18.2955 3.23768C18.0778 3.13351 17.8371 3.07031 17.5801 3.07031Z" fill="white"/>
<path d="M0.417363 4.0249C0.313197 4.24262 0.25 4.48328 0.25 4.74033V14.7599C0.25 15.0169 0.313197 15.2576 0.417363 15.4753L6.17967 9.7501L0.417363 4.0249Z" fill="white"/>
<path d="M12.5332 10.5371L11.7178 11.3525C10.6328 12.4376 8.8672 12.4376 7.78216 11.3525L6.96679 10.5371L1.20448 16.2623C1.4222 16.3665 1.66286 16.4297 1.91991 16.4297H17.5801C17.8371 16.4297 18.0778 16.3665 18.2955 16.2623L12.5332 10.5371Z" fill="white"/>
</g>
<defs>
<clipPath id="clip0">
<rect width="19" height="19" fill="white" transform="translate(0.25 0.25)"/>
</clipPath>
</defs>
</svg>
