<svg width="21" height="21" viewBox="0 0 21 21" fill="none" xmlns="http://www.w3.org/2000/svg">
<g clip-path="url(#clip0)">
<path d="M10.8599 5.27489C14.2299 5.30796 16.341 5.09828 16.6261 8.83352H20.7356C20.7356 3.04705 15.689 2.26709 10.7529 2.26709C5.81643 2.26709 0.770233 3.04705 0.770233 8.83352H4.8478C5.16328 5.02709 7.51794 5.24221 10.8599 5.27489Z" fill="white"/>
<path d="M2.80823 10.6937C3.80915 10.6937 4.64201 10.7537 4.82718 9.76908C4.85208 9.63526 4.86647 9.48355 4.86647 9.30811H4.81901H0.75C0.75 10.7727 1.67156 10.6937 2.80823 10.6937Z" fill="white"/>
<path d="M16.6526 9.30811H16.6141C16.6141 9.48471 16.6292 9.63682 16.6576 9.76908C16.8529 10.677 17.6846 10.6206 18.682 10.6206C19.8242 10.6206 20.75 10.6957 20.75 9.30811H16.6526Z" fill="white"/>
<path d="M14.6449 8.31069V7.72873C14.6449 7.46849 14.345 7.45215 13.9747 7.45215H13.3698C12.9998 7.45215 12.6999 7.46849 12.6999 7.72873V8.23016V8.61917H8.42082V8.23016V7.72873C8.42082 7.46849 8.1209 7.45215 7.75095 7.45215H7.14566C6.77571 7.45215 6.47579 7.46849 6.47579 7.72873V8.31069V8.81873C5.50094 9.8317 2.31108 14.1438 2.19516 14.6659L2.19672 18.1494C2.19672 18.4712 2.45852 18.733 2.78023 18.733H18.3405C18.6622 18.733 18.924 18.4712 18.924 18.1494V14.6484C18.8092 14.1415 15.6202 9.83131 14.6449 8.81834V8.31069ZM8.20998 15.1346C7.89683 15.1346 7.64281 14.881 7.64281 14.5675C7.64281 14.2539 7.89683 14.0003 8.20998 14.0003C8.52313 14.0003 8.77715 14.2539 8.77715 14.5675C8.77715 14.881 8.52313 15.1346 8.20998 15.1346ZM8.20998 13.1896C7.89683 13.1896 7.64281 12.936 7.64281 12.6224C7.64281 12.3089 7.89683 12.0553 8.20998 12.0553C8.52313 12.0553 8.77715 12.3089 8.77715 12.6224C8.77715 12.936 8.52313 13.1896 8.20998 13.1896ZM8.20998 11.245C7.89683 11.245 7.64281 10.9913 7.64281 10.6778C7.64281 10.3646 7.89683 10.1106 8.20998 10.1106C8.52313 10.1106 8.77715 10.3646 8.77715 10.6778C8.77715 10.9913 8.52313 11.245 8.20998 11.245ZM10.544 15.1346C10.2309 15.1346 9.97685 14.881 9.97685 14.5675C9.97685 14.2539 10.2309 14.0003 10.544 14.0003C10.8576 14.0003 11.1112 14.2539 11.1112 14.5675C11.1112 14.881 10.8576 15.1346 10.544 15.1346ZM10.544 13.1896C10.2309 13.1896 9.97685 12.936 9.97685 12.6224C9.97685 12.3089 10.2309 12.0553 10.544 12.0553C10.8576 12.0553 11.1112 12.3089 11.1112 12.6224C11.1112 12.936 10.8576 13.1896 10.544 13.1896ZM10.544 11.245C10.2309 11.245 9.97685 10.9913 9.97685 10.6778C9.97685 10.3646 10.2309 10.1106 10.544 10.1106C10.8576 10.1106 11.1112 10.3646 11.1112 10.6778C11.1112 10.9913 10.8576 11.245 10.544 11.245ZM12.8781 15.1346C12.5645 15.1346 12.3109 14.881 12.3109 14.5675C12.3109 14.2539 12.5645 14.0003 12.8781 14.0003C13.1916 14.0003 13.4452 14.2539 13.4452 14.5675C13.4452 14.881 13.1916 15.1346 12.8781 15.1346ZM12.8781 13.1896C12.5645 13.1896 12.3109 12.936 12.3109 12.6224C12.3109 12.3089 12.5645 12.0553 12.8781 12.0553C13.1916 12.0553 13.4452 12.3089 13.4452 12.6224C13.4452 12.936 13.1916 13.1896 12.8781 13.1896ZM12.8781 11.245C12.5645 11.245 12.3109 10.9913 12.3109 10.6778C12.3109 10.3646 12.5645 10.1106 12.8781 10.1106C13.1916 10.1106 13.4452 10.3646 13.4452 10.6778C13.4452 10.9913 13.1916 11.245 12.8781 11.245Z" fill="white"/>
</g>
<defs>
<clipPath id="clip0">
<rect width="20" height="20" fill="white" transform="translate(0.75 0.5)"/>
</clipPath>
</defs>
</svg>
