<svg width="73" height="65" viewBox="0 0 73 65" fill="none" xmlns="http://www.w3.org/2000/svg">
<path d="M19.2501 58.6065H16.8439V60.7377H19.2501V58.6065Z" fill="#3B3F9E"/>
<path d="M44.5157 45.8197H24.0626V29.8361C24.0626 29.5535 23.9359 29.2825 23.7102 29.0827C23.4846 28.8828 23.1786 28.7706 22.8595 28.7706H1.20325C0.884158 28.7706 0.578139 28.8828 0.352509 29.0827C0.126879 29.2825 0.00012207 29.5535 0.00012207 29.8361V63.9344C0.00012207 64.217 0.126879 64.4881 0.352509 64.6879C0.578139 64.8877 0.884158 65 1.20325 65H44.5157C44.8348 65 45.1409 64.8877 45.3665 64.6879C45.5921 64.4881 45.7189 64.217 45.7189 63.9344V46.8853C45.7189 46.6027 45.5921 46.3316 45.3665 46.1318C45.1409 45.932 44.8348 45.8197 44.5157 45.8197ZM31.2814 47.9509H36.0939V52.2131H31.2814V47.9509ZM9.62512 30.9017H14.4376V35.164H9.62512V30.9017ZM2.40637 30.9017H7.21887V36.2296C7.21887 36.5122 7.34563 36.7832 7.57126 36.983C7.79689 37.1829 8.10291 37.2951 8.422 37.2951H15.6407C15.9598 37.2951 16.2659 37.1829 16.4915 36.983C16.7171 36.7832 16.8439 36.5122 16.8439 36.2296V30.9017H21.6564V45.8197H2.40637V30.9017ZM9.62512 47.9509H14.4376V52.2131H9.62512V47.9509ZM2.40637 47.9509H7.21887V53.2787C7.21887 53.5613 7.34563 53.8324 7.57126 54.0322C7.79689 54.232 8.10291 54.3443 8.422 54.3443H15.6407C15.9598 54.3443 16.2659 54.232 16.4915 54.0322C16.7171 53.8324 16.8439 53.5613 16.8439 53.2787V47.9509H21.6564V62.8689H2.40637V47.9509ZM43.3126 62.8689H24.0626V47.9509H28.8751V53.2787C28.8751 53.5613 29.0019 53.8324 29.2275 54.0322C29.4531 54.232 29.7592 54.3443 30.0782 54.3443H37.297C37.6161 54.3443 37.9221 54.232 38.1477 54.0322C38.3734 53.8324 38.5001 53.5613 38.5001 53.2787V47.9509H43.3126V62.8689Z" fill="#3B3F9E"/>
<path d="M40.9064 58.6065H38.5001V60.7377H40.9064V58.6065Z" fill="#3B3F9E"/>
<path d="M19.2501 41.5574H16.8439V43.6886H19.2501V41.5574Z" fill="#3B3F9E"/>
<path d="M70.7023 13.8227C70.7947 13.8425 70.8895 13.8525 70.9846 13.8525C71.1954 13.8523 71.4025 13.8033 71.5853 13.7102C71.768 13.6171 71.9201 13.4832 72.0262 13.3218C72.1355 13.1515 72.1912 12.9583 72.1877 12.7624V8.52462C72.1877 8.28551 72.0969 8.05336 71.9298 7.86549C71.7628 7.67763 71.5293 7.54498 71.2669 7.48888L36.3762 0.0298712C36.1907 -0.00995707 35.9972 -0.00995707 35.8117 0.0298712L0.921009 7.48888C0.658568 7.54498 0.425059 7.67763 0.258038 7.86549C0.0910163 8.05336 0.000189969 8.28551 0.000166762 8.52462V12.7567C-0.00394528 12.9798 0.068074 13.1988 0.206804 13.3851C0.344471 13.5644 0.540536 13.7023 0.768899 13.7805C0.997262 13.8587 1.24709 13.8734 1.48512 13.8227L3.60954 13.3686V26.6394H6.0158V12.8542L36.0939 6.42398L66.1721 12.8542V62.8689H58.9533V21.3115C58.9533 21.0289 58.8266 20.7579 58.6009 20.558C58.3753 20.3582 58.0693 20.2459 57.7502 20.2459H14.4377C14.1186 20.2459 13.8126 20.3582 13.5869 20.558C13.3613 20.7579 13.2345 21.0289 13.2345 21.3115V25.5738C13.2345 25.8564 13.3613 26.1274 13.5869 26.3273C13.8126 26.5271 14.1186 26.6394 14.4377 26.6394H56.5471V28.7705H26.4689V30.9017H56.5471V33.0328H26.4689V35.164H56.5471V37.2951H26.4689V39.4262H56.5471V62.8689H48.1252V65H72.1877V62.8689H68.5783V13.3686L70.7023 13.8227ZM15.6408 24.5082V22.3771H56.5471V24.5082H15.6408ZM36.0939 4.26233C35.9988 4.26229 35.9041 4.2723 35.8117 4.29216L2.40642 11.4335V9.36376L36.0939 2.16182L69.7815 9.36376V11.4336L36.3762 4.29216C36.2838 4.2723 36.189 4.26229 36.0939 4.26233Z" fill="#3B3F9E"/>
<path d="M38.5001 17.0492C39.4574 17.0492 40.3754 16.7124 41.0523 16.1129C41.7292 15.5134 42.1095 14.7003 42.1095 13.8525C42.1095 13.0047 41.7292 12.1916 41.0523 11.5921C40.3754 10.9926 39.4574 10.6558 38.5001 10.6558H33.6876C32.7304 10.6558 31.8123 10.9926 31.1354 11.5921C30.4585 12.1916 30.0782 13.0047 30.0782 13.8525C30.0782 14.7003 30.4585 15.5134 31.1354 16.1129C31.8123 16.7124 32.7304 17.0492 33.6876 17.0492H38.5001ZM32.4845 13.8525C32.4849 13.57 32.6117 13.2992 32.8373 13.0994C33.0628 12.8996 33.3686 12.7873 33.6876 12.7869H38.5001C38.8192 12.7869 39.1252 12.8992 39.3509 13.099C39.5765 13.2989 39.7032 13.5699 39.7032 13.8525C39.7032 14.1351 39.5765 14.4062 39.3509 14.606C39.1252 14.8058 38.8192 14.9181 38.5001 14.9181H33.6876C33.3686 14.9178 33.0628 14.8054 32.8373 14.6056C32.6117 14.4059 32.4849 14.135 32.4845 13.8525Z" fill="#3B3F9E"/>
</svg>
