<svg width="109" height="87" viewBox="0 0 109 87" fill="none" xmlns="http://www.w3.org/2000/svg">
<path d="M71.9213 66.9177H45.9656V74.7496H71.9213V66.9177Z" fill="#FBFBFF"/>
<path d="M35.3317 55.039C27.7657 55.039 21.6106 62.0656 21.6106 70.7029C21.6106 79.3402 27.7657 86.3668 35.3317 86.3668C42.8977 86.3668 49.0528 79.3402 49.0528 70.7029C49.0528 62.0656 42.8977 55.039 35.3317 55.039ZM35.3317 78.5349C31.5482 78.5349 28.4711 75.0221 28.4711 70.7029C28.4711 66.3837 31.5482 62.871 35.3317 62.871C39.1141 62.871 42.1922 66.3837 42.1922 70.7029C42.1922 75.0224 39.1152 78.5349 35.3317 78.5349Z" fill="#FBFBFF"/>
<path d="M25.0409 66.9177H13.1494C11.2547 66.9177 9.71924 68.6708 9.71924 70.8336C9.71924 72.9966 11.2549 74.7494 13.1494 74.7494H25.0411C26.9358 74.7494 28.4713 72.9963 28.4713 70.8336C28.4713 68.6706 26.9356 66.9177 25.0409 66.9177Z" fill="#FBFBFF"/>
<path d="M108.134 42.978L101.386 33.0575C100.738 32.102 99.7375 31.5433 98.6775 31.5433H73.7508V4.13166C73.7508 1.96865 72.2152 0.21582 70.3206 0.21582H13.1494C11.2547 0.21582 9.71924 1.96889 9.71924 4.13166C9.71924 6.29443 11.2549 8.0475 13.1494 8.0475H66.8903V35.4591C66.8903 37.6221 68.4259 39.375 70.3204 39.375H96.9977L101.993 46.7212V66.9172H92.5028C90.6081 66.9172 89.0726 68.6702 89.0726 70.833C89.0726 72.996 90.6083 74.7488 92.5028 74.7488H105.423C107.318 74.7488 108.854 72.9958 108.854 70.833V45.3798C108.854 44.5104 108.6 43.6646 108.134 42.978Z" fill="#FBFBFF"/>
<path d="M24.8123 47.0768H9.03295C7.13822 47.0768 5.60278 48.8299 5.60278 50.9926C5.60278 53.1556 7.13843 54.9084 9.03295 54.9084H24.8121C26.7068 54.9084 28.2422 53.1554 28.2422 50.9926C28.2425 48.8299 26.7068 47.0768 24.8123 47.0768Z" fill="#FBFBFF"/>
<path d="M32.7018 31.6738H3.43017C1.53565 31.6738 0 33.4269 0 35.5899C0 37.753 1.53565 39.5058 3.43017 39.5058H32.7018C34.5966 39.5058 36.132 37.7527 36.132 35.5899C36.132 33.4272 34.5966 31.6738 32.7018 31.6738Z" fill="#FBFBFF"/>
<path d="M38.3046 16.2711H9.03295C7.13822 16.2711 5.60278 18.0242 5.60278 20.187C5.60278 22.35 7.13843 24.1028 9.03295 24.1028H38.3046C40.1994 24.1028 41.7348 22.3497 41.7348 20.187C41.735 18.0242 40.1994 16.2711 38.3046 16.2711Z" fill="#FBFBFF"/>
<path d="M90.0784 13.4378C89.6337 12.4296 88.7297 11.7935 87.7409 11.7935H73.9657V17.7653H86.128L93.2501 33.9367L97.925 31.2533L90.0784 13.4378Z" fill="#FBFBFF"/>
<path d="M80.4279 59.7401C74.6589 59.7401 69.9657 65.0979 69.9657 71.6837C69.9657 78.2695 74.6589 83.6273 80.4279 83.6273C86.1979 83.6273 90.8901 78.2695 90.8901 71.6837C90.8901 65.0979 86.1969 59.7401 80.4279 59.7401ZM80.4279 77.6555C77.543 77.6555 75.1968 74.9771 75.1968 71.6837C75.1968 68.3903 77.543 65.7119 80.4279 65.7119C83.3128 65.7119 85.659 68.3903 85.659 71.6837C85.659 74.9772 83.3128 77.6555 80.4279 77.6555Z" fill="#FBFBFF"/>
</svg>
