<svg width="84" height="101" viewBox="0 0 84 101" fill="none" xmlns="http://www.w3.org/2000/svg">
<path d="M29.5821 53.7628H19.3692C18.4123 53.7641 17.4949 54.2217 16.8182 55.0353C16.1415 55.8489 15.7609 56.952 15.7598 58.1026V61.9059C15.7598 62.2198 15.8636 62.5209 16.0482 62.7428C16.2328 62.9648 16.4831 63.0895 16.7442 63.0895H29.5821C29.8432 63.0895 30.0936 62.9648 30.2782 62.7428C30.4628 62.5209 30.5665 62.2198 30.5665 61.9059V54.9464C30.5665 54.6325 30.4628 54.3314 30.2782 54.1094C30.0936 53.8875 29.8432 53.7628 29.5821 53.7628ZM19.8352 60.7223H17.7286V58.1026C17.7291 57.5796 17.9021 57.0782 18.2096 56.7084C18.5172 56.3385 18.9342 56.1305 19.3692 56.13H19.8352V60.7223ZM24.5208 60.7223H21.8039V56.13H24.5208V60.7223ZM28.5977 60.7223H26.4895V56.13H28.5977V60.7223Z" fill="#3B3F9E"/>
<path d="M20.7801 72.361H19.8237C19.5626 72.361 19.3122 72.4857 19.1276 72.7077C18.943 72.9296 18.8393 73.2307 18.8393 73.5446C18.8393 73.8585 18.943 74.1595 19.1276 74.3815C19.3122 74.6035 19.5626 74.7282 19.8237 74.7282H20.7801C21.0412 74.7282 21.2916 74.6035 21.4762 74.3815C21.6608 74.1595 21.7645 73.8585 21.7645 73.5446C21.7645 73.2307 21.6608 72.9296 21.4762 72.7077C21.2916 72.4857 21.0412 72.361 20.7801 72.361Z" fill="#3B3F9E"/>
<path d="M22.7341 73.5446C22.7341 73.8585 22.8379 74.1595 23.0225 74.3815C23.2071 74.6035 23.4574 74.7282 23.7185 74.7282H51.532C51.7931 74.7282 52.0435 74.6035 52.2281 74.3815C52.4127 74.1595 52.5164 73.8585 52.5164 73.5446C52.5164 73.2307 52.4127 72.9296 52.2281 72.7077C52.0435 72.4857 51.7931 72.361 51.532 72.361H23.7185C23.4574 72.361 23.2071 72.4857 23.0225 72.7077C22.8379 72.9296 22.7341 73.2307 22.7341 73.5446Z" fill="#3B3F9E"/>
<path d="M46.387 50.7801C46.6481 50.7801 46.8985 50.6554 47.0831 50.4335C47.2677 50.2115 47.3714 49.9104 47.3714 49.5965V41.0293C47.3714 40.7154 47.2677 40.4143 47.0831 40.1924C46.8985 39.9704 46.6481 39.8457 46.387 39.8457C46.126 39.8457 45.8756 39.9704 45.691 40.1924C45.5064 40.4143 45.4026 40.7154 45.4026 41.0293V49.5965C45.4026 49.9104 45.5064 50.2115 45.691 50.4335C45.8756 50.6554 46.126 50.7801 46.387 50.7801Z" fill="#3B3F9E"/>
<path d="M52.3458 50.7801C52.6069 50.7801 52.8572 50.6554 53.0418 50.4335C53.2264 50.2115 53.3302 49.9104 53.3302 49.5965V41.0293C53.3302 40.7154 53.2264 40.4143 53.0418 40.1924C52.8572 39.9704 52.6069 39.8457 52.3458 39.8457C52.0847 39.8457 51.8343 39.9704 51.6497 40.1924C51.4651 40.4143 51.3614 40.7154 51.3614 41.0293V49.5965C51.3614 49.9104 51.4651 50.2115 51.6497 50.4335C51.8343 50.6554 52.0847 50.7801 52.3458 50.7801Z" fill="#3B3F9E"/>
<path d="M58.3062 50.7801C58.5673 50.7801 58.8176 50.6554 59.0022 50.4335C59.1868 50.2115 59.2906 49.9104 59.2906 49.5965V41.0293C59.2906 40.7154 59.1868 40.4143 59.0022 40.1924C58.8176 39.9704 58.5673 39.8457 58.3062 39.8457C58.0451 39.8457 57.7947 39.9704 57.6101 40.1924C57.4255 40.4143 57.3218 40.7154 57.3218 41.0293V49.5965C57.3218 49.9104 57.4255 50.2115 57.6101 50.4335C57.7947 50.6554 58.0451 50.7801 58.3062 50.7801Z" fill="#3B3F9E"/>
<path d="M79.5638 94.8039C77.3606 94.8039 76.2979 93.6951 75.0673 92.411C73.7318 91.0176 72.2182 89.4383 69.2787 89.4383C66.3392 89.4383 64.8257 91.0164 63.4902 92.4107C62.2598 93.6949 61.1961 94.8039 58.992 94.8039C56.7878 94.8039 55.7261 93.6951 54.4955 92.411C53.16 91.0176 51.6464 89.4383 48.7069 89.4383C45.7674 89.4383 44.2537 91.0184 42.9188 92.411C41.6883 93.6951 40.6253 94.8039 38.4221 94.8039C36.2189 94.8039 35.1547 93.6947 33.9237 92.4105C32.5886 91.0174 31.0752 89.4383 28.137 89.4383C25.1989 89.4383 23.6852 91.0176 22.3502 92.4107C21.1198 93.6949 20.057 94.8039 17.8536 94.8039C15.6502 94.8039 14.586 93.6949 13.3547 92.4107C12.0195 91.0184 10.5057 89.4383 7.56656 89.4383C7.30549 89.4383 7.05511 89.563 6.8705 89.7849C6.68589 90.0069 6.58218 90.3079 6.58218 90.6219C6.58218 90.9358 6.68589 91.2368 6.8705 91.4588C7.05511 91.6807 7.30549 91.8054 7.56656 91.8054C9.77074 91.8054 10.8337 92.9145 12.0648 94.1987C13.4003 95.5918 14.9141 97.1711 17.8533 97.1711C20.7925 97.1711 22.3051 95.5918 23.6403 94.1985C24.8707 92.9145 25.9334 91.8054 28.1367 91.8054C30.3401 91.8054 31.4025 92.9143 32.6332 94.1983C33.9686 95.5916 35.4823 97.1711 38.4218 97.1711C41.3613 97.1711 42.8733 95.5929 44.2086 94.1989C45.4391 92.9147 46.5025 91.8054 48.7069 91.8054C50.9112 91.8054 51.9743 92.9147 53.2053 94.1989C54.5406 95.592 56.0538 97.1711 58.992 97.1711C61.9302 97.1711 63.4449 95.5929 64.7804 94.1987C66.0109 92.9145 67.0745 91.8054 69.2787 91.8054C71.4828 91.8054 72.5461 92.9147 73.7769 94.1989C75.1122 95.592 76.6256 97.1711 79.5638 97.1711C79.8248 97.1711 80.0752 97.0464 80.2598 96.8244C80.4444 96.6024 80.5481 96.3014 80.5481 95.9875C80.5481 95.6736 80.4444 95.3725 80.2598 95.1505C80.0752 94.9286 79.8248 94.8039 79.5638 94.8039Z" fill="#3B3F9E"/>
<path d="M80.9878 65.575H79.3538V60.6809C79.3538 60.367 79.2501 60.0659 79.0655 59.8439C78.8808 59.622 78.6305 59.4973 78.3694 59.4973H76.1611V5.01251C76.1611 4.6986 76.0574 4.39755 75.8728 4.17558C75.6882 3.95362 75.4378 3.82892 75.1767 3.82892H70.5354C70.2743 3.82892 70.024 3.95362 69.8393 4.17558C69.6547 4.39755 69.551 4.6986 69.551 5.01251V8.83552H50.3049C50.0438 8.83552 49.7934 8.96022 49.6088 9.18219C49.4242 9.40415 49.3205 9.70521 49.3205 10.0191V14.0236C49.3205 14.3375 49.4242 14.6386 49.6088 14.8605C49.7934 15.0825 50.0438 15.2072 50.3049 15.2072H51.2515V18.6574C51.2509 18.8454 51.2098 19.03 51.1322 19.1933C51.0545 19.3565 50.943 19.4927 50.8085 19.5887C50.3321 19.9266 49.9493 20.4264 49.7084 21.0251C49.4675 21.6239 49.3792 22.2949 49.4546 22.9538C49.53 23.6128 49.7657 24.2302 50.1321 24.7285C50.4986 25.2268 50.9793 25.5837 51.514 25.7544V28.6384L40.2757 36.4018L39.6031 37.2199C39.4537 37.5406 39.3752 37.902 39.375 38.2695V52.9165C39.375 53.2304 39.4787 53.5315 39.6633 53.7534C39.8479 53.9754 40.0983 54.1001 40.3594 54.1001H64.3338C64.5949 54.1001 64.8453 53.9754 65.0299 53.7534C65.2145 53.5315 65.3182 53.2304 65.3182 52.9165V38.2794C65.3182 37.9053 65.237 37.5377 65.0826 37.213L65.069 37.1844C64.9147 36.8597 64.6926 36.589 64.4247 36.3991L53.4827 28.6465V25.5202C53.941 25.2468 54.3284 24.828 54.6031 24.3091C54.8777 23.7902 55.0293 23.191 55.0413 22.5761C55.052 22.2696 54.9659 21.9696 54.8004 21.7362C54.6348 21.5028 54.4021 21.3533 54.1487 21.3175C54.0123 21.3023 53.8748 21.3215 53.745 21.3738C53.6151 21.4261 53.4958 21.5104 53.3946 21.6214C53.2934 21.7323 53.2126 21.8674 53.1573 22.018C53.102 22.1687 53.0734 22.3315 53.0734 22.4962C53.0733 22.7393 53.0002 22.9742 52.8676 23.1576C52.7349 23.3411 52.5517 23.4609 52.3515 23.4949C52.1513 23.5289 51.9476 23.4748 51.7779 23.3427C51.6082 23.2106 51.4838 23.0092 51.4277 22.7757C51.3767 22.5604 51.3866 22.3309 51.4556 22.1231C51.5246 21.9153 51.649 21.7408 51.8093 21.627C52.238 21.321 52.5934 20.8866 52.8407 20.3661C53.088 19.8456 53.2188 19.2568 53.2203 18.6574V15.2072H69.551V59.4973H34.9896V47.6337C34.9896 47.3198 34.8859 47.0188 34.7013 46.7968C34.5167 46.5748 34.2663 46.4501 34.0052 46.4501H31.0702V31.4244C31.0702 31.1105 30.9665 30.8094 30.7819 30.5875C30.5972 30.3655 30.3469 30.2408 30.0858 30.2408H23.8153C23.5543 30.2408 23.3039 30.3655 23.1193 30.5875C22.9347 30.8094 22.8309 31.1105 22.8309 31.4244V46.4501H22.0746C19.8253 46.4578 17.6157 47.1626 15.659 48.4964C13.7023 49.8302 12.0646 51.7479 10.9039 54.0646L5.17602 65.575H3.0122C2.84474 65.575 2.68005 65.6264 2.5337 65.7243C2.38736 65.8222 2.2642 65.9633 2.17588 66.1344C2.08756 66.3055 2.037 66.5008 2.02898 66.7019C2.02095 66.903 2.05574 67.1033 2.13003 67.2837L7.88863 81.272C7.78297 81.268 7.67584 81.2658 7.56723 81.2655C7.30616 81.2655 7.05578 81.3902 6.87117 81.6122C6.68656 81.8342 6.58285 82.1352 6.58285 82.4491C6.58285 82.763 6.68656 83.0641 6.87117 83.2861C7.05578 83.508 7.30616 83.6327 7.56723 83.6327C8.15025 83.6231 8.73126 83.7169 9.29153 83.9111C10.4275 84.3172 11.2232 85.1471 12.0658 86.0256C13.4013 87.4181 14.9149 88.9964 17.8539 88.9964C20.793 88.9964 22.3056 87.4183 23.6408 86.025C24.8712 84.7414 25.934 83.6327 28.1374 83.6327C30.3407 83.6327 31.4034 84.7412 32.6338 86.0246C33.9695 87.4175 35.4831 88.9964 38.4225 88.9964C41.3618 88.9964 42.874 87.4183 44.2091 86.0254C45.4396 84.7416 46.503 83.6327 48.7075 83.6327C50.9121 83.6327 51.9752 84.7416 53.2061 86.0254C54.5413 87.4179 56.0546 88.9964 58.9926 88.9964C61.9307 88.9964 63.4454 87.4183 64.7811 86.025C66.0115 84.7414 67.075 83.6327 69.2793 83.6327C71.4837 83.6327 72.5465 84.7414 73.7775 86.025C74.5202 86.7996 75.2883 87.6005 76.3267 88.1844C77.3419 88.7424 78.4483 89.0198 79.5644 88.9964C79.8255 88.9964 80.0759 88.8717 80.2605 88.6497C80.4451 88.4277 80.5488 88.1267 80.5488 87.8128C80.5488 87.4989 80.4451 87.1978 80.2605 86.9759C80.0759 86.7539 79.8255 86.6292 79.5644 86.6292C79.0066 86.6355 78.4507 86.5492 77.9125 86.3727L81.9433 67.0458C81.9797 66.8713 81.9825 66.6891 81.9516 66.5131C81.9206 66.337 81.8566 66.1718 81.7646 66.0299C81.6725 65.8881 81.5548 65.7733 81.4203 65.6944C81.2858 65.6155 81.1381 65.5744 80.9885 65.5744L80.9878 65.575ZM63.3495 51.7329H41.3438V38.8929H63.3495V51.7329ZM52.4921 30.6929L60.7245 36.5257H44.0487L52.4921 30.6929ZM71.5198 6.19611H74.1924V59.4973H71.5198V6.19611ZM51.2892 12.84V11.2027H69.551V12.84H51.2892ZM24.7997 32.608H29.1014V35.8964H24.7997V32.608ZM24.7997 38.2636H29.1014V46.4501H24.7997V38.2636ZM12.5934 55.2801C13.5786 53.3139 14.9686 51.6862 16.6294 50.5542C18.2901 49.4221 20.1655 48.8239 22.0746 48.8173H33.0209V65.575H7.4701L12.5934 55.2801ZM76.1124 85.272C75.7557 84.9538 75.4159 84.6013 75.0667 84.2366C73.731 82.8439 72.2175 81.2655 69.2787 81.2655C66.3398 81.2655 64.8259 82.8437 63.4902 84.2368C62.2598 85.5206 61.1963 86.6292 58.992 86.6292C56.7876 86.6292 55.726 85.5208 54.4955 84.2371C53.1599 82.8443 51.6462 81.2655 48.7069 81.2655C45.7675 81.2655 44.2539 82.8437 42.9184 84.2371C41.688 85.5208 40.625 86.6292 38.4218 86.6292C36.2186 86.6292 35.1542 85.5204 33.9234 84.2366C32.5882 82.8439 31.0748 81.2655 28.1367 81.2655C25.1987 81.2655 23.6851 82.8437 22.3501 84.237C21.1196 85.5206 20.0567 86.6292 17.8533 86.6292C15.6499 86.6292 14.5852 85.5208 13.3547 84.2371C12.5311 83.3784 11.6076 82.418 10.3145 81.8305L4.5977 67.9422H41.1261C41.3871 67.9422 41.6375 67.8175 41.8221 67.5956C42.0067 67.3736 42.1104 67.0725 42.1104 66.7586C42.1104 66.4447 42.0067 66.1437 41.8221 65.9217C41.6375 65.6997 41.3871 65.575 41.1261 65.575H34.9901V61.8645H77.385V65.575H45.1715C44.9104 65.575 44.6601 65.6997 44.4754 65.9217C44.2908 66.1437 44.1871 66.4447 44.1871 66.7586C44.1871 67.0725 44.2908 67.3736 44.4754 67.5956C44.6601 67.8175 44.9104 67.9422 45.1715 67.9422H79.726L76.1124 85.272Z" fill="#3B3F9E"/>
</svg>
